HIERARCHY
ROOT Hips
{
	OFFSET 0.000000 0.000000 0.000000
	CHANNELS 6 Xposition Yposition Zposition Zrotation Yrotation Xrotation 
	JOINT LHipJoint
	{
		OFFSET 0.000000 0.000000 0.000000
		CHANNELS 3 Zrotation Yrotation Xrotation
		JOINT LeftUpLeg
		{
			OFFSET 1.363060 -1.794630 0.839290
			CHANNELS 3 Zrotation Yrotation Xrotation
			JOINT LeftLeg
			{
				OFFSET 2.448110 -6.726130 0.000000
				CHANNELS 3 Zrotation Yrotation Xrotation
				JOINT LeftFoot
				{
					OFFSET 2.562200 -7.039590 0.000000
					CHANNELS 3 Zrotation Yrotation Xrotation
					JOINT LeftToeBase
					{
						OFFSET 0.157640 -0.433110 2.322550
						CHANNELS 3 Zrotation Yrotation Xrotation
						End Site
						{
							OFFSET 0.000000 0.000000 0.000000
						}
					}
				}
			}
		}
	}
	JOINT RHipJoint
	{
		OFFSET 0.000000 0.000000 0.000000
		CHANNELS 3 Zrotation Yrotation Xrotation
		JOINT RightUpLeg
		{
			OFFSET -1.305520 -1.794630 0.839290
			CHANNELS 3 Zrotation Yrotation Xrotation
			JOINT RightLeg
			{
				OFFSET -2.542530 -6.985550 0.000000
				CHANNELS 3 Zrotation Yrotation Xrotation
				JOINT RightFoot
				{
					OFFSET -2.568260 -7.056230 0.000000
					CHANNELS 3 Zrotation Yrotation Xrotation
					JOINT RightToeBase
					{
						OFFSET -0.164730 -0.452590 2.363150
						CHANNELS 3 Zrotation Yrotation Xrotation
						End Site
						{
							OFFSET 0.000000 0.000000 0.000000
						}
					}
				}
			}
		}
	}
	JOINT LowerBack
	{
		OFFSET 0.000000 0.000000 0.000000
		CHANNELS 3 Zrotation Yrotation Xrotation
		JOINT Spine
		{
			OFFSET 0.028270 2.035590 -0.193380
			CHANNELS 3 Zrotation Yrotation Xrotation
			JOINT Spine1
			{
				OFFSET 0.056720 2.048850 -0.042750
				CHANNELS 3 Zrotation Yrotation Xrotation
				JOINT Neck
				{
					OFFSET 0.000000 0.000000 0.000000
					CHANNELS 3 Zrotation Yrotation Xrotation
					JOINT Neck1
					{
						OFFSET -0.054170 1.746240 0.172020
						CHANNELS 3 Zrotation Yrotation Xrotation
						JOINT Head
						{
							OFFSET 0.104070 1.761360 -0.123970
							CHANNELS 3 Zrotation Yrotation Xrotation
							End Site
							{
								OFFSET 0.000000 0.000000 0.000000
							}
						}
					}
				}
				JOINT LeftShoulder
				{
					OFFSET 0.000000 0.000000 0.000000
					CHANNELS 3 Zrotation Yrotation Xrotation
					JOINT LeftArm
					{
						OFFSET 3.362410 1.200890 -0.311210
						CHANNELS 3 Zrotation Yrotation Xrotation
						JOINT LeftForeArm
						{
							OFFSET 4.983000 -0.000000 -0.000000
							CHANNELS 3 Zrotation Yrotation Xrotation
							JOINT LeftHand
							{
								OFFSET 3.483560 -0.000000 -0.000000
								CHANNELS 3 Zrotation Yrotation Xrotation
								JOINT LeftFingerBase
								{
									OFFSET 0.000000 0.000000 0.000000
									CHANNELS 3 Zrotation Yrotation Xrotation
									JOINT LeftHandIndex1
									{
										OFFSET 0.715260 -0.000000 -0.000000
										CHANNELS 3 Zrotation Yrotation Xrotation
										End Site
										{
											OFFSET 0.000000 0.000000 0.000000
										}
									}
								}
								JOINT LThumb
								{
									OFFSET 0.000000 0.000000 0.000000
									CHANNELS 3 Zrotation Yrotation Xrotation
									End Site
									{
										OFFSET 0.000000 0.000000 0.000000
									}
								}
							}
						}
					}
				}
				JOINT RightShoulder
				{
					OFFSET 0.000000 0.000000 0.000000
					CHANNELS 3 Zrotation Yrotation Xrotation
					JOINT RightArm
					{
						OFFSET -3.136600 1.374050 -0.404650
						CHANNELS 3 Zrotation Yrotation Xrotation
						JOINT RightForeArm
						{
							OFFSET -5.241900 -0.000000 -0.000000
							CHANNELS 3 Zrotation Yrotation Xrotation
							JOINT RightHand
							{
								OFFSET -3.444170 -0.000000 -0.000000
								CHANNELS 3 Zrotation Yrotation Xrotation
								JOINT RightFingerBase
								{
									OFFSET 0.000000 0.000000 0.000000
									CHANNELS 3 Zrotation Yrotation Xrotation
									JOINT RightHandIndex1
									{
										OFFSET -0.622530 -0.000000 -0.000000
										CHANNELS 3 Zrotation Yrotation Xrotation
										End Site
										{
											OFFSET 0.000000 0.000000 0.000000
										}
									}
								}
								JOINT RThumb
								{
									OFFSET 0.000000 0.000000 0.000000
									CHANNELS 3 Zrotation Yrotation Xrotation
									End Site
									{
										OFFSET 0.000000 0.000000 0.000000
									}
								}
							}
						}
					}
				}
			}
		}
	}
}
MOTION
Frames: 7
Frame Time: 0.008333
4.491043 17.267323 2.170630 -117.634580 -78.923949 159.201725 -9.577797 -2.239737 -0.886824 -7.263555 -1.159973 -48.224122 -2.317472 -1.249507 10.018250 1.133388 4.771857 -5.076433 0.603900 -0.000001 -33.225400 6.069584 -0.331227 12.981132 -1.093056 23.085786 -109.614956 7.624254 4.347826 -8.224042 0.247645 -4.559189 14.003044 -4.296500 0.000000 -77.127600 16.675024 -3.432654 -5.642792 3.104532 -4.781562 -4.052061 -6.579104 -4.860731 1.509616 12.931919 -16.288608 -12.864959 -2.851114 -0.139262 -1.725453 0.000000 0.000000 0.000000 3.203929 6.263279 1.166727 -52.983444 -5.954162 -32.040487 179.537448 -88.712521 179.831697 22.796646 -4.301344 -0.984171 -0.356180 0.519968 0.000000 0.000000 0.000000 0.000000 0.000000 0.000000 0.000000 15.266147 -15.366783 3.010609 62.658489 -5.805449 -21.723213 2.195642 39.342743 -0.001881 -9.193075 7.395188 -0.616253 0.151715 -0.141954 -0.000000 0.000000 0.000000 0.000000 0.000000 0.000000 0.000000 
4.489496 17.269683 2.180390 -118.753908 -78.650918 160.072534 -9.550203 -2.185145 -0.946551 -7.423957 -0.813509 -47.934312 -2.346892 -1.242584 9.948968 1.122312 4.693078 -5.172475 0.581500 0.000000 -33.120799 6.180196 -0.350568 12.757099 -0.725307 23.070402 -108.338679 7.362337 3.663233 -6.074495 0.294556 -4.887426 16.297769 -4.610600 0.000000 -75.508800 16.503457 -3.378542 -5.386836 3.052920 -4.698425 -3.991188 -6.592895 -4.775630 1.513701 12.756791 -16.123758 -12.766658 -2.896601 -0.144254 -1.696394 0.000000 0.000000 0.000000 2.901744 6.436048 1.161349 -53.285105 -6.091028 -32.040855 179.547562 -88.902251 179.834830 22.741749 -4.509158 -1.023384 -0.354312 0.516069 0.000000 0.000000 0.000000 0.000000 0.000000 0.000000 0.000000 15.290725 -15.201127 2.968108 62.654940 -5.370597 -21.231194 2.218201 38.930021 -0.001565 -9.078509 7.472633 -0.614953 0.151201 -0.142600 -0.000000 0.000000 0.000000 0.000000 0.000000 0.000000 0.000000 
4.483546 17.272347 2.190452 -119.454272 -78.494866 160.462243 -9.553419 -2.136750 -0.958121 -7.584500 -0.524918 -47.558839 -2.375491 -1.248336 9.801685 1.103963 4.590275 -5.236311 0.560900 0.000000 -33.022301 6.259753 -0.350565 12.487808 -0.411550 22.801662 -106.619977 7.086908 3.102962 -4.517636 0.478517 -4.523531 18.580871 -4.521000 -0.000000 -73.774200 16.318539 -3.363182 -5.183059 3.003728 -4.659439 -3.937063 -6.593177 -4.733957 1.528104 12.609168 -15.978070 -12.660776 -2.938732 -0.149213 -1.662562 0.000000 0.000000 0.000000 2.627482 6.596139 1.152961 -53.678996 -6.163267 -32.002286 179.555422 -89.051792 179.838059 22.648693 -4.696157 -1.056385 -0.352147 0.512340 0.000000 0.000000 0.000000 0.000000 0.000000 0.000000 0.000000 15.325449 -15.068377 2.908904 62.543435 -4.932383 -20.536462 2.254292 38.609378 -0.000813 -8.893342 7.596015 -0.612347 0.151018 -0.142709 -0.000000 0.000000 0.000000 0.000000 0.000000 0.000000 0.000000 
4.474554 17.275574 2.199465 -119.918441 -78.442551 160.555484 -9.571558 -2.085890 -0.934998 -7.756483 -0.302033 -47.080483 -2.402320 -1.265890 9.564936 1.082556 4.488317 -5.262174 0.544600 -0.000000 -32.918100 6.312609 -0.317251 12.179442 -0.206407 22.312973 -104.488705 6.811432 2.683791 -3.549309 0.751106 -3.538893 20.589145 -4.008400 -0.000000 -72.312399 16.085149 -3.379234 -5.016214 2.947955 -4.653774 -3.885158 -6.583285 -4.724900 1.554239 12.506436 -15.863921 -12.553563 -2.975466 -0.153812 -1.626316 0.000000 0.000000 0.000000 2.411937 6.750874 1.138521 -54.149965 -6.193505 -31.931579 179.562241 -89.183542 179.841216 22.519447 -4.862804 -1.083279 -0.349612 0.509114 0.000000 0.000000 0.000000 0.000000 0.000000 0.000000 0.000000 15.385864 -14.978561 2.835566 62.351166 -4.480435 -19.680037 2.299509 38.379650 0.000285 -8.665202 7.766728 -0.609935 0.151134 -0.142391 -0.000000 0.000000 0.000000 0.000000 0.000000 0.000000 0.000000 
4.461187 17.278283 2.207272 -120.065954 -78.501913 160.318757 -9.605223 -2.032318 -0.864214 -7.927959 -0.167349 -46.579056 -2.427792 -1.293995 9.278707 1.057888 4.378076 -5.260740 0.531500 0.000000 -32.809900 6.344060 -0.269541 11.873575 -0.170729 21.644496 -102.066034 6.548577 2.411068 -3.122955 1.049771 -2.144023 22.107287 -3.180300 -0.000000 -71.249400 15.822740 -3.418411 -4.938253 2.891086 -4.678531 -3.847762 -6.561805 -4.745814 1.592987 12.435726 -15.781926 -12.444076 -3.004732 -0.157980 -1.586605 0.000000 0.000000 0.000000 2.246928 6.888093 1.118758 -54.681850 -6.161588 -31.826474 179.567692 -89.295521 179.844284 22.359964 -4.999390 -1.102264 -0.346861 0.506194 0.000000 0.000000 0.000000 0.000000 0.000000 0.000000 0.000000 15.446660 -14.927566 2.750814 62.102028 -4.054768 -18.729443 2.351365 38.261339 0.001650 -8.407401 7.970262 -0.607318 0.151635 -0.141756 -0.000000 0.000000 0.000000 0.000000 0.000000 0.000000 0.000000 
4.444227 17.280651 2.212839 -120.001513 -78.663918 159.858831 -9.644196 -1.971002 -0.756996 -8.106319 -0.127560 -46.041624 -2.451044 -1.330711 8.945162 1.032975 4.277124 -5.230565 0.522900 -0.000000 -32.695100 6.361846 -0.203287 11.575202 -0.344127 20.846229 -99.406005 6.286905 2.266448 -3.138370 1.323836 -0.585965 23.033430 -2.203300 -0.000001 -70.716000 15.507625 -3.475334 -4.934792 2.826871 -4.725024 -3.821774 -6.531816 -4.788194 1.643028 12.401715 -15.735293 -12.335587 -3.025791 -0.161566 -1.544966 0.000000 0.000000 0.000000 2.146023 7.008671 1.092727 -55.249777 -6.085023 -31.693940 179.572552 -89.405268 179.847159 22.175356 -5.106669 -1.113847 -0.343873 0.503729 0.000000 0.000000 0.000000 0.000000 0.000000 0.000000 0.000000 15.512623 -14.916076 2.657978 61.828380 -3.658579 -17.748458 2.403980 38.252876 0.003148 -8.147816 8.194777 -0.605197 0.152434 -0.140943 -0.000000 0.000000 0.000000 0.000000 0.000000 0.000000 0.000000 
4.423927 17.282652 2.215948 -119.727811 -78.924203 159.183220 -9.685913 -1.902268 -0.617987 -8.290034 -0.183153 -45.480825 -2.472127 -1.373347 8.586429 1.008032 4.183988 -5.178357 0.517700 -0.000000 -32.574700 6.373127 -0.127460 11.293822 -0.732673 19.971217 -96.572862 6.016415 2.224123 -3.477187 1.536156 0.875917 23.340196 -1.270201 0.000000 -70.674300 15.141188 -3.544799 -5.004288 2.755382 -4.787130 -3.807678 -6.493830 -4.846150 1.702629 12.395025 -15.726585 -12.230236 -3.037365 -0.164428 -1.502304 0.000000 0.000000 0.000000 2.102762 7.108957 1.060705 -55.829244 -5.973559 -31.537165 179.579566 -89.523327 179.847141 21.972688 -5.185862 -1.118629 -0.340679 0.501701 0.000000 0.000000 0.000000 0.000000 0.000000 0.000000 0.000000 15.569416 -14.943839 2.560588 61.558760 -3.302585 -16.798898 2.452796 38.350620 0.004653 -7.911863 8.425726 -0.604274 0.153509 -0.140102 -0.000000 0.000000 0.000000 0.000000 0.000000 0.000000 0.000000 
